<?xml version="1.0" encoding="iso-8859-1"?>
<!-- Generator: Adobe Illustrator 16.0.0, SVG Export Plug-In . SVG Version: 6.00 Build 0)  -->
<!DOCTYPE svg PUBLIC "-//W3C//DTD SVG 1.1//EN" "http://www.w3.org/Graphics/SVG/1.1/DTD/svg11.dtd">
<svg version="1.1" id="Capa_1" xmlns="http://www.w3.org/2000/svg" xmlns:xlink="http://www.w3.org/1999/xlink" x="0px" y="0px"
	 width="98.643px" height="98.643px" viewBox="0 0 98.643 98.643" style="enable-background:new 0 0 98.643 98.643;"
	 xml:space="preserve">
<g>
	<g>
		<path d="M80.039,62.948c-1.494,0.318-3.053,0.597-4.584,0.827l0,0l-2.608,2.259l-0.269-1.882c-0.703,0.08-1.385,0.146-2.034,0.2
			l-0.781,1.682l-1.793-1.537c-1.388,0.032-2.463-0.035-3.034-0.219c-1.466-0.732-4.388-2.473-7.603-4.45
			c0.247-0.832,0.434-1.669,0.542-2.489c0,0,0.181-1.01,0.154-2.263c-7.037-1.666-12.735-6.889-14.983-13.798l-20.274,2.251
			l3.05,5.792l-7.99-5.243l-4.099,0.455l-4.786,2.663l-5.88,1.879c-1.513,1.928-2.493,4.331-2.903,6.828l3.579,1.285
			c0,0-1.785,1.267-3.743,2.695c0.012,0.136,0.013,0.272,0.028,0.406c0.127,1.15,0.379,2.293,0.746,3.396
			c0.015,0.046,0.036,0.093,0.051,0.14c2.604,0.012,5.094,0.034,5.094,0.034L5.29,70.481l6.133,0.569l-1.218,2.341
			c0,0,2.126-0.233,3.282-0.361l33.823-3.755c0.66-0.073,1.283-0.218,1.883-0.4c4.135,2.565,8.39,5.128,10.53,6.182
			c2.083,1.026,5.016,1.394,8.143,1.394c0.899,0,2.729-0.086,2.729-0.086l-0.017-2.349l6.336,1.667
			c0.392-0.059,0.773-0.118,1.146-0.18l2.312-4.116l3.148,2.965c2.653-1.064,4.238-3.907,3.62-6.799
			C86.453,64.319,83.273,62.255,80.039,62.948z"/>
		<path d="M61.74,52.935c8.461-0.94,14.561-8.563,13.621-17.024c-0.94-8.463-8.562-14.562-17.024-13.622
			c-1.474,0.164-2.868,0.541-4.173,1.079l-1.629,2.764l-0.938-1.406c-1.183,0.776-2.243,1.708-3.164,2.765l-0.796,7.167
			c0,0-0.983-0.559-2.397-1.368c-0.555,1.899-0.756,3.936-0.524,6.025C45.655,47.776,53.277,53.874,61.74,52.935z"/>
		<path d="M95.095,27.031l-5.985-2.721c-1.41-0.643-3.015-0.711-4.477-0.193l-1.447,0.572v3.256l-1.844-2.527l-6.958,2.75
			c1.868,3.648,2.771,7.592,2.795,11.685c0.093-0.027,0.185-0.039,0.276-0.072l8.898-3.573l3.786,1.721
			c3.009,1.523,5.778-0.462,5.778-0.462c0.609-0.402,1.152-0.919,1.588-1.539C97.332,36.162,101.412,29.75,95.095,27.031z"/>
	</g>
</g>
<g>
</g>
<g>
</g>
<g>
</g>
<g>
</g>
<g>
</g>
<g>
</g>
<g>
</g>
<g>
</g>
<g>
</g>
<g>
</g>
<g>
</g>
<g>
</g>
<g>
</g>
<g>
</g>
<g>
</g>
</svg>
